<?xml version="1.0" standalone="no"?>
<!DOCTYPE svg PUBLIC "-//W3C//DTD SVG 1.1//EN"
"http://www.w3.org/Graphics/SVG/1.1/DTD/svg11.dtd">

<svg width="818" height="154" view_box="0 0 818 154"
xmlns="http://www.w3.org/2000/svg"
xmlns:link="http://www.w3.org/1999/xlink">\n\n<desc>Généré par Mocodo 2.3.7 le Mon, 09 Nov 2020 10:37:46</desc>

<rect id="frame" x="0" y="0" width="818" height="154" fill="#f5f5f5" stroke="none" stroke-width="0"/>

<!-- Association effectue -->
<line x1="35" y1="77" x2="125" y2="77" stroke="#bf812d" stroke-width="2"/>
<text x="66" y="94.0" fill="#01665e" font-family="Verdana" font-size="12">0,n</text>
<line x1="238" y1="77" x2="125" y2="77" stroke="#bf812d" stroke-width="2"/>
<text x="163" y="94.0" fill="#01665e" font-family="Verdana" font-size="12">1,1</text>
<g id="association-effectue">
	<path d="M 143 52 a 14 14 90 0 1 14 14 V 77 h -64 V 66 a 14 14 90 0 1 14 -14" fill="#dfc27d" stroke="#dfc27d" stroke-width="0"/>
	<path d="M 157 77.0 v 11 a 14 14 90 0 1 -14 14 H 107 a 14 14 90 0 1 -14 -14 V 77.0 H 64" fill="#f6e8c3" stroke="#f6e8c3" stroke-width="0"/>
	<rect x="93" y="52" width="64" height="50" fill="none" rx="14" stroke="#bf812d" stroke-width="2"/>
	<line x1="93" y1="77" x2="157" y2="77" stroke="#bf812d" stroke-width="1"/>
	<text x="100" y="69.7" fill="#000000" font-family="Verdana" font-size="12">effectue</text>
</g>

<!-- Association comporte -->
<line x1="238" y1="77" x2="355" y2="77" stroke="#bf812d" stroke-width="2"/>
<text x="292" y="94.0" fill="#01665e" font-family="Verdana" font-size="12">1,n</text>
<line x1="501" y1="77" x2="355" y2="77" stroke="#bf812d" stroke-width="2"/>
<text x="397" y="94.0" fill="#01665e" font-family="Verdana" font-size="12">1,1</text>
<g id="association-comporte">
	<path d="M 377 52 a 14 14 90 0 1 14 14 V 77 h -72 V 66 a 14 14 90 0 1 14 -14" fill="#dfc27d" stroke="#dfc27d" stroke-width="0"/>
	<path d="M 391 77.0 v 11 a 14 14 90 0 1 -14 14 H 333 a 14 14 90 0 1 -14 -14 V 77.0 H 72" fill="#f6e8c3" stroke="#f6e8c3" stroke-width="0"/>
	<rect x="319" y="52" width="72" height="50" fill="none" rx="14" stroke="#bf812d" stroke-width="2"/>
	<line x1="319" y1="77" x2="391" y2="77" stroke="#bf812d" stroke-width="1"/>
	<text x="326" y="69.7" fill="#000000" font-family="Verdana" font-size="12">comporte</text>
</g>

<!-- Association propose -->
<line x1="501" y1="77" x2="643" y2="77" stroke="#bf812d" stroke-width="2"/>
<text x="584" y="94.0" fill="#01665e" font-family="Verdana" font-size="12">1,n</text>
<line x1="758" y1="77" x2="643" y2="77" stroke="#bf812d" stroke-width="2"/>
<text x="681" y="94.0" fill="#01665e" font-family="Verdana" font-size="12">1,1</text>
<g id="association-propose">
	<path d="M 661 52 a 14 14 90 0 1 14 14 V 77 h -64 V 66 a 14 14 90 0 1 14 -14" fill="#dfc27d" stroke="#dfc27d" stroke-width="0"/>
	<path d="M 675 77.0 v 11 a 14 14 90 0 1 -14 14 H 625 a 14 14 90 0 1 -14 -14 V 77.0 H 64" fill="#f6e8c3" stroke="#f6e8c3" stroke-width="0"/>
	<rect x="611" y="52" width="64" height="50" fill="none" rx="14" stroke="#bf812d" stroke-width="2"/>
	<line x1="611" y1="77" x2="675" y2="77" stroke="#bf812d" stroke-width="1"/>
	<text x="618" y="69.7" fill="#000000" font-family="Verdana" font-size="12">propose</text>
</g>

<!-- Entity RESERVATION -->
<g id="entity-RESERVATION">
	<g id="frame-RESERVATION">
		<rect x="189" y="35" width="98" height="25" fill="#80cdc1" stroke="#80cdc1" stroke-width="0"/>
		<rect x="189" y="60.0" width="98" height="59" fill="#c7eae5" stroke="#c7eae5" stroke-width="0"/>
		<rect x="189" y="35" width="98" height="84" fill="none" stroke="#35978f" stroke-width="2"/>
		<line x1="189" y1="60" x2="287" y2="60" stroke="#35978f" stroke-width="1"/>
	</g>
	<text x="194" y="52.7" fill="#000000" font-family="Verdana" font-size="12">RESERVATION</text>
	<text x="194" y="77.8" fill="#000000" font-family="Verdana" font-size="12">id_reservation</text>
	<line x1="194" y1="80" x2="281" y2="80" stroke="#000000" stroke-width="1"/>
	<text x="194" y="94.8" fill="#000000" font-family="Verdana" font-size="12">date</text>
	<text x="194" y="111.8" fill="#000000" font-family="Verdana" font-size="12">facture</text>
</g>

<!-- Entity USERS -->
<g id="entity-USERS">
	<g id="frame-USERS">
		<rect x="9" y="9" width="52" height="25" fill="#80cdc1" stroke="#80cdc1" stroke-width="0"/>
		<rect x="9" y="34.0" width="52" height="111" fill="#c7eae5" stroke="#c7eae5" stroke-width="0"/>
		<rect x="9" y="9" width="52" height="136" fill="none" stroke="#35978f" stroke-width="2"/>
		<line x1="9" y1="34" x2="61" y2="34" stroke="#35978f" stroke-width="1"/>
	</g>
	<text x="14" y="26.7" fill="#000000" font-family="Verdana" font-size="12">USERS</text>
	<text x="14" y="51.7" fill="#000000" font-family="Verdana" font-size="12">id</text>
	<line x1="14" y1="54" x2="26" y2="54" stroke="#000000" stroke-width="1"/>
	<text x="14" y="68.7" fill="#000000" font-family="Verdana" font-size="12">nom</text>
	<text x="14" y="85.8" fill="#000000" font-family="Verdana" font-size="12">mail</text>
	<text x="14" y="102.8" fill="#000000" font-family="Verdana" font-size="12">mdp</text>
	<text x="14" y="119.8" fill="#000000" font-family="Verdana" font-size="12">adress</text>
	<text x="14" y="136.8" fill="#000000" font-family="Verdana" font-size="12">statut</text>
</g>

<!-- Entity TRANSPORT -->
<g id="entity-TRANSPORT">
	<g id="frame-TRANSPORT">
		<rect x="707" y="26" width="102" height="25" fill="#80cdc1" stroke="#80cdc1" stroke-width="0"/>
		<rect x="707" y="51.0" width="102" height="77" fill="#c7eae5" stroke="#c7eae5" stroke-width="0"/>
		<rect x="707" y="26" width="102" height="102" fill="none" stroke="#35978f" stroke-width="2"/>
		<line x1="707" y1="51" x2="809" y2="51" stroke="#35978f" stroke-width="1"/>
	</g>
	<text x="720" y="43.7" fill="#000000" font-family="Verdana" font-size="12">TRANSPORT</text>
	<text x="712" y="68.7" fill="#000000" font-family="Verdana" font-size="12">id_transport</text>
	<line x1="712" y1="71" x2="787" y2="71" stroke="#000000" stroke-width="1"/>
	<text x="712" y="85.8" fill="#000000" font-family="Verdana" font-size="12">type_transport</text>
	<text x="712" y="102.8" fill="#000000" font-family="Verdana" font-size="12">km_parcouru</text>
	<text x="712" y="119.8" fill="#000000" font-family="Verdana" font-size="12">tva</text>
</g>

<!-- Entity PRESTATION -->
<g id="entity-PRESTATION">
	<g id="frame-PRESTATION">
		<rect x="423" y="9" width="156" height="25" fill="#80cdc1" stroke="#80cdc1" stroke-width="0"/>
		<rect x="423" y="34.0" width="156" height="111" fill="#c7eae5" stroke="#c7eae5" stroke-width="0"/>
		<rect x="423" y="9" width="156" height="136" fill="none" stroke="#35978f" stroke-width="2"/>
		<line x1="423" y1="34" x2="579" y2="34" stroke="#35978f" stroke-width="1"/>
	</g>
	<text x="461" y="26.7" fill="#000000" font-family="Verdana" font-size="12">PRESTATION</text>
	<text x="428" y="51.7" fill="#000000" font-family="Verdana" font-size="12">id_presta</text>
	<line x1="428" y1="54" x2="485" y2="54" stroke="#000000" stroke-width="1"/>
	<text x="428" y="68.7" fill="#000000" font-family="Verdana" font-size="12">type_presta</text>
	<text x="428" y="85.8" fill="#000000" font-family="Verdana" font-size="12">date_heure_reservation</text>
	<text x="428" y="102.8" fill="#000000" font-family="Verdana" font-size="12">px</text>
	<text x="428" y="119.8" fill="#000000" font-family="Verdana" font-size="12">adr_depart</text>
	<text x="428" y="136.8" fill="#000000" font-family="Verdana" font-size="12">nb_passager</text>
</g>
</svg>